<mxfile host="65bd71144e">
    <diagram id="SZHYhyRzii-DjOMIfW77" name="Page-1">
        <mxGraphModel dx="5199" dy="2971" grid="0" gridSize="10" guides="1" tooltips="1" connect="1" arrows="1" fold="1" page="1" pageScale="1" pageWidth="1100" pageHeight="850" background="none" math="0" shadow="0">
            <root>
                <mxCell id="0"/>
                <mxCell id="1" parent="0"/>
                <mxCell id="2" value="" style="rounded=0;whiteSpace=wrap;html=1;strokeWidth=3;" parent="1" vertex="1">
                    <mxGeometry x="-3396" y="-2485" width="785" height="86" as="geometry"/>
                </mxCell>
                <mxCell id="5" value="" style="line;strokeWidth=4;html=1;strokeColor=#FF9933;" parent="1" vertex="1">
                    <mxGeometry x="-3392" y="-2432" width="781" height="10" as="geometry"/>
                </mxCell>
                <mxCell id="8" value="Nav" style="text;html=1;strokeColor=none;fillColor=none;align=center;verticalAlign=middle;whiteSpace=wrap;rounded=0;" parent="1" vertex="1">
                    <mxGeometry x="-3035" y="-2470" width="60" height="30" as="geometry"/>
                </mxCell>
                <mxCell id="9" value="" style="rounded=0;whiteSpace=wrap;html=1;strokeColor=#2EF061;strokeWidth=3;" parent="1" vertex="1">
                    <mxGeometry x="-3394" y="-2387" width="781" height="710" as="geometry"/>
                </mxCell>
                <mxCell id="12" value="" style="rounded=0;whiteSpace=wrap;html=1;strokeColor=#FF9933;strokeWidth=2;" parent="1" vertex="1">
                    <mxGeometry x="-3383" y="-2376" width="763" height="240" as="geometry"/>
                </mxCell>
                <mxCell id="14" value="Big Carousel" style="text;html=1;strokeColor=none;fillColor=none;align=center;verticalAlign=middle;whiteSpace=wrap;rounded=0;" parent="1" vertex="1">
                    <mxGeometry x="-3061" y="-2313" width="145" height="46" as="geometry"/>
                </mxCell>
                <mxCell id="15" value="" style="ellipse;shape=cloud;whiteSpace=wrap;html=1;strokeColor=#FF9933;fillColor=none;" parent="1" vertex="1">
                    <mxGeometry x="-3053" y="-2327" width="120" height="80" as="geometry"/>
                </mxCell>
                <mxCell id="17" value="" style="rounded=0;whiteSpace=wrap;html=1;strokeColor=#FFFF00;fillColor=none;strokeWidth=2;" parent="1" vertex="1">
                    <mxGeometry x="-3384.5" y="-2127" width="762" height="437" as="geometry"/>
                </mxCell>
                <mxCell id="21" value="" style="edgeStyle=none;html=1;" parent="1" source="18" target="20" edge="1">
                    <mxGeometry relative="1" as="geometry"/>
                </mxCell>
                <mxCell id="27" value="" style="edgeStyle=none;html=1;" parent="1" source="18" target="26" edge="1">
                    <mxGeometry relative="1" as="geometry"/>
                </mxCell>
                <mxCell id="18" value="" style="whiteSpace=wrap;html=1;aspect=fixed;strokeColor=#3399FF;fillColor=none;strokeWidth=3;" parent="1" vertex="1">
                    <mxGeometry x="-3364" y="-2158" width="127" height="127" as="geometry"/>
                </mxCell>
                <mxCell id="23" value="" style="edgeStyle=none;html=1;" parent="1" source="20" target="22" edge="1">
                    <mxGeometry relative="1" as="geometry"/>
                </mxCell>
                <mxCell id="29" value="" style="edgeStyle=none;html=1;" parent="1" source="20" target="28" edge="1">
                    <mxGeometry relative="1" as="geometry"/>
                </mxCell>
                <mxCell id="20" value="" style="whiteSpace=wrap;html=1;aspect=fixed;strokeColor=#3399FF;fillColor=none;strokeWidth=3;" parent="1" vertex="1">
                    <mxGeometry x="-3176" y="-2159" width="132" height="132" as="geometry"/>
                </mxCell>
                <mxCell id="25" value="" style="edgeStyle=none;html=1;" parent="1" source="22" target="24" edge="1">
                    <mxGeometry relative="1" as="geometry"/>
                </mxCell>
                <mxCell id="31" value="" style="edgeStyle=none;html=1;" parent="1" source="22" target="30" edge="1">
                    <mxGeometry relative="1" as="geometry"/>
                </mxCell>
                <mxCell id="22" value="headphones" style="whiteSpace=wrap;html=1;aspect=fixed;strokeColor=#3399FF;fillColor=none;strokeWidth=3;" parent="1" vertex="1">
                    <mxGeometry x="-2985" y="-2161" width="134" height="134" as="geometry"/>
                </mxCell>
                <mxCell id="33" value="" style="edgeStyle=none;html=1;" parent="1" source="24" target="32" edge="1">
                    <mxGeometry relative="1" as="geometry"/>
                </mxCell>
                <mxCell id="24" value="Toys&amp;amp;games" style="whiteSpace=wrap;html=1;aspect=fixed;strokeColor=#3399FF;fillColor=none;strokeWidth=3;align=center;" parent="1" vertex="1">
                    <mxGeometry x="-2799" y="-2161" width="134" height="134" as="geometry"/>
                </mxCell>
                <mxCell id="35" value="" style="edgeStyle=none;html=1;" parent="1" source="26" target="34" edge="1">
                    <mxGeometry relative="1" as="geometry"/>
                </mxCell>
                <mxCell id="26" value="Men's fashion" style="whiteSpace=wrap;html=1;aspect=fixed;strokeColor=#3399FF;fillColor=none;strokeWidth=3;" parent="1" vertex="1">
                    <mxGeometry x="-3364" y="-1989" width="133" height="133" as="geometry"/>
                </mxCell>
                <mxCell id="28" value="Cameras'&amp;nbsp; accessories" style="whiteSpace=wrap;html=1;aspect=fixed;strokeColor=#3399FF;fillColor=none;strokeWidth=3;" parent="1" vertex="1">
                    <mxGeometry x="-3185" y="-1989" width="129" height="129" as="geometry"/>
                </mxCell>
                <mxCell id="39" value="" style="edgeStyle=none;html=1;" parent="1" source="30" target="38" edge="1">
                    <mxGeometry relative="1" as="geometry"/>
                </mxCell>
                <mxCell id="30" value="kids fasion" style="whiteSpace=wrap;html=1;aspect=fixed;strokeColor=#3399FF;fillColor=none;strokeWidth=3;" parent="1" vertex="1">
                    <mxGeometry x="-2991" y="-1987" width="129" height="129" as="geometry"/>
                </mxCell>
                <mxCell id="41" value="" style="edgeStyle=none;html=1;" parent="1" source="32" target="40" edge="1">
                    <mxGeometry relative="1" as="geometry"/>
                </mxCell>
                <mxCell id="32" value="women's fashion" style="whiteSpace=wrap;html=1;aspect=fixed;strokeColor=#3399FF;fillColor=none;strokeWidth=3;" parent="1" vertex="1">
                    <mxGeometry x="-2801" y="-1989" width="129" height="129" as="geometry"/>
                </mxCell>
                <mxCell id="37" value="" style="edgeStyle=none;html=1;" parent="1" source="34" target="36" edge="1">
                    <mxGeometry relative="1" as="geometry"/>
                </mxCell>
                <mxCell id="34" value="sportes, fitness, outdoors" style="whiteSpace=wrap;html=1;aspect=fixed;strokeColor=#3399FF;fillColor=none;strokeWidth=3;align=center;" parent="1" vertex="1">
                    <mxGeometry x="-3364" y="-1823" width="122" height="122" as="geometry"/>
                </mxCell>
                <mxCell id="36" value="Suprmarket" style="whiteSpace=wrap;html=1;aspect=fixed;strokeColor=#3399FF;fillColor=none;strokeWidth=3;" parent="1" vertex="1">
                    <mxGeometry x="-3187" y="-1823" width="122" height="122" as="geometry"/>
                </mxCell>
                <mxCell id="46" value="" style="edgeStyle=none;html=1;" parent="1" source="38" target="40" edge="1">
                    <mxGeometry relative="1" as="geometry"/>
                </mxCell>
                <mxCell id="38" value="&lt;span style=&quot;color: rgb(240, 240, 240); font-family: Helvetica; font-size: 12px; font-style: normal; font-variant-ligatures: normal; font-variant-caps: normal; font-weight: 400; letter-spacing: normal; orphans: 2; text-align: center; text-indent: 0px; text-transform: none; widows: 2; word-spacing: 0px; -webkit-text-stroke-width: 0px; background-color: rgb(42, 37, 47); text-decoration-thickness: initial; text-decoration-style: initial; text-decoration-color: initial; float: none; display: inline !important;&quot;&gt;Computers&amp;amp; office supplis&lt;/span&gt;" style="whiteSpace=wrap;html=1;aspect=fixed;strokeColor=#3399FF;fillColor=none;strokeWidth=3;" parent="1" vertex="1">
                    <mxGeometry x="-2999" y="-1826.5" width="129" height="129" as="geometry"/>
                </mxCell>
                <mxCell id="40" value="Automotive" style="whiteSpace=wrap;html=1;aspect=fixed;strokeColor=#3399FF;fillColor=none;strokeWidth=3;" parent="1" vertex="1">
                    <mxGeometry x="-2798" y="-1826.5" width="129" height="129" as="geometry"/>
                </mxCell>
                <mxCell id="42" value="home&amp;amp;kitchen applience" style="text;html=1;strokeColor=none;fillColor=none;align=center;verticalAlign=middle;whiteSpace=wrap;rounded=0;strokeWidth=3;" parent="1" vertex="1">
                    <mxGeometry x="-3336" y="-2115" width="60" height="30" as="geometry"/>
                </mxCell>
                <mxCell id="45" value="kitchen&lt;br&gt;essencials&lt;br&gt;" style="text;html=1;strokeColor=none;fillColor=none;align=center;verticalAlign=middle;whiteSpace=wrap;rounded=0;strokeWidth=3;" parent="1" vertex="1">
                    <mxGeometry x="-3135" y="-2109.5" width="60" height="30" as="geometry"/>
                </mxCell>
                <mxCell id="47" value="" style="rounded=0;whiteSpace=wrap;html=1;strokeColor=#3399FF;strokeWidth=3;fillColor=none;" parent="1" vertex="1">
                    <mxGeometry x="-3397" y="-1668" width="784" height="154" as="geometry"/>
                </mxCell>
                <mxCell id="48" value="&lt;b&gt;make it 2 rows and&lt;br&gt;&amp;nbsp;use carousel&lt;/b&gt;" style="ellipse;shape=cloud;whiteSpace=wrap;html=1;strokeColor=#FF9933;strokeWidth=2;fillColor=none;align=center;fontColor=#FFFFFF;" parent="1" vertex="1">
                    <mxGeometry x="-3084" y="-2050" width="137" height="80" as="geometry"/>
                </mxCell>
                <mxCell id="49" value="Today's deals .. 10 carousels using owl carousel" style="ellipse;whiteSpace=wrap;html=1;strokeColor=#FF9933;strokeWidth=1;fontColor=#FFFFFF;fillColor=none;" parent="1" vertex="1">
                    <mxGeometry x="-3209" y="-1662" width="372" height="29" as="geometry"/>
                </mxCell>
                <mxCell id="52" value="" style="edgeStyle=none;html=1;fontColor=#FFFFFF;" parent="1" source="50" target="51" edge="1">
                    <mxGeometry relative="1" as="geometry"/>
                </mxCell>
                <mxCell id="50" value="" style="whiteSpace=wrap;html=1;aspect=fixed;strokeColor=#33FFFF;strokeWidth=2;fontColor=#FFFFFF;fillColor=none;" parent="1" vertex="1">
                    <mxGeometry x="-3376" y="-1625" width="80" height="80" as="geometry"/>
                </mxCell>
                <mxCell id="54" value="" style="edgeStyle=none;html=1;fontColor=#FFFFFF;" parent="1" source="51" target="53" edge="1">
                    <mxGeometry relative="1" as="geometry"/>
                </mxCell>
                <mxCell id="51" value="" style="whiteSpace=wrap;html=1;aspect=fixed;strokeColor=#33FFFF;strokeWidth=2;fontColor=#FFFFFF;fillColor=none;" parent="1" vertex="1">
                    <mxGeometry x="-3246" y="-1625" width="80" height="80" as="geometry"/>
                </mxCell>
                <mxCell id="56" value="" style="edgeStyle=none;html=1;fontColor=#FFFFFF;" parent="1" source="53" target="55" edge="1">
                    <mxGeometry relative="1" as="geometry"/>
                </mxCell>
                <mxCell id="53" value="" style="whiteSpace=wrap;html=1;aspect=fixed;strokeColor=#33FFFF;strokeWidth=2;fontColor=#FFFFFF;fillColor=none;" parent="1" vertex="1">
                    <mxGeometry x="-3133" y="-1625" width="80" height="80" as="geometry"/>
                </mxCell>
                <mxCell id="58" value="" style="edgeStyle=none;html=1;fontColor=#FFFFFF;" parent="1" source="55" target="57" edge="1">
                    <mxGeometry relative="1" as="geometry"/>
                </mxCell>
                <mxCell id="55" value="" style="whiteSpace=wrap;html=1;aspect=fixed;strokeColor=#33FFFF;strokeWidth=2;fontColor=#FFFFFF;fillColor=none;" parent="1" vertex="1">
                    <mxGeometry x="-3013" y="-1625" width="80" height="80" as="geometry"/>
                </mxCell>
                <mxCell id="60" value="" style="edgeStyle=none;html=1;fontColor=#FFFFFF;" parent="1" source="57" target="59" edge="1">
                    <mxGeometry relative="1" as="geometry"/>
                </mxCell>
                <mxCell id="57" value="" style="whiteSpace=wrap;html=1;aspect=fixed;strokeColor=#33FFFF;strokeWidth=2;fontColor=#FFFFFF;fillColor=none;" parent="1" vertex="1">
                    <mxGeometry x="-2886" y="-1625" width="80" height="80" as="geometry"/>
                </mxCell>
                <mxCell id="59" value="" style="whiteSpace=wrap;html=1;aspect=fixed;strokeColor=#33FFFF;strokeWidth=2;fontColor=#FFFFFF;fillColor=none;" parent="1" vertex="1">
                    <mxGeometry x="-2733" y="-1625" width="80" height="80" as="geometry"/>
                </mxCell>
                <mxCell id="63" value="" style="rounded=0;whiteSpace=wrap;html=1;strokeColor=#3399FF;strokeWidth=3;fillColor=none;fontColor=#FFFFFF;" parent="1" vertex="1">
                    <mxGeometry x="-3401" y="-1474" width="784" height="154" as="geometry"/>
                </mxCell>
                <mxCell id="79" value="" style="edgeStyle=none;html=1;fontColor=#FFFFFF;" parent="1" source="77" target="78" edge="1">
                    <mxGeometry relative="1" as="geometry"/>
                </mxCell>
                <mxCell id="77" value="" style="ellipse;whiteSpace=wrap;html=1;aspect=fixed;strokeColor=#33FFFF;strokeWidth=2;fontColor=#FFFFFF;fillColor=none;" parent="1" vertex="1">
                    <mxGeometry x="-3387" y="-1409" width="80" height="80" as="geometry"/>
                </mxCell>
                <mxCell id="81" value="" style="edgeStyle=none;html=1;fontColor=#FFFFFF;" parent="1" source="78" target="80" edge="1">
                    <mxGeometry relative="1" as="geometry"/>
                </mxCell>
                <mxCell id="78" value="" style="ellipse;whiteSpace=wrap;html=1;aspect=fixed;strokeColor=#33FFFF;strokeWidth=2;fontColor=#FFFFFF;fillColor=none;" parent="1" vertex="1">
                    <mxGeometry x="-3227" y="-1409" width="80" height="80" as="geometry"/>
                </mxCell>
                <mxCell id="84" value="" style="edgeStyle=none;html=1;fontColor=#FFFFFF;" parent="1" source="80" target="83" edge="1">
                    <mxGeometry relative="1" as="geometry"/>
                </mxCell>
                <mxCell id="80" value="" style="ellipse;whiteSpace=wrap;html=1;aspect=fixed;strokeColor=#33FFFF;strokeWidth=2;fontColor=#FFFFFF;fillColor=none;" parent="1" vertex="1">
                    <mxGeometry x="-3067" y="-1409" width="80" height="80" as="geometry"/>
                </mxCell>
                <mxCell id="86" value="" style="edgeStyle=none;html=1;fontColor=#FFFFFF;" parent="1" source="83" target="85" edge="1">
                    <mxGeometry relative="1" as="geometry"/>
                </mxCell>
                <mxCell id="83" value="" style="ellipse;whiteSpace=wrap;html=1;aspect=fixed;strokeColor=#33FFFF;strokeWidth=2;fontColor=#FFFFFF;fillColor=none;" parent="1" vertex="1">
                    <mxGeometry x="-2907" y="-1409" width="80" height="80" as="geometry"/>
                </mxCell>
                <mxCell id="85" value="" style="ellipse;whiteSpace=wrap;html=1;aspect=fixed;strokeColor=#33FFFF;strokeWidth=2;fontColor=#FFFFFF;fillColor=none;" parent="1" vertex="1">
                    <mxGeometry x="-2747" y="-1409" width="80" height="80" as="geometry"/>
                </mxCell>
                <mxCell id="89" value="" style="edgeStyle=none;html=1;fontSize=607;fontColor=#FFFFFF;" parent="1" source="87" target="80" edge="1">
                    <mxGeometry relative="1" as="geometry"/>
                </mxCell>
                <mxCell id="87" value="&lt;div class=&quot;a-section as-title-block&quot;&gt;&lt;h2 class=&quot;as-title-block-left&quot;&gt;&lt;span class=&quot;a-color-base&quot;&gt;Shop the Budget Store&lt;/span&gt;&lt;/h2&gt;&lt;span class=&quot;as-title-block-right&quot;&gt;&lt;a href=&quot;https://www.amazon.eg/-/en/whitefriday&quot; class=&quot;a-link-normal&quot;&gt;Shop all deals&lt;/a&gt;&lt;/span&gt;&lt;/div&gt;" style="ellipse;whiteSpace=wrap;html=1;strokeColor=#FF9933;strokeWidth=1;fontColor=#FFFFFF;fillColor=none;" parent="1" vertex="1">
                    <mxGeometry x="-3216" y="-1462" width="372" height="29" as="geometry"/>
                </mxCell>
                <mxCell id="93" value="&lt;h2 class=&quot;as-title-block-left&quot;&gt;&lt;span class=&quot;a-color-base&quot;&gt;Frequently repurchased in Beauty &amp;amp; Personal Care&lt;/span&gt;&lt;/h2&gt;&lt;div&gt;&lt;span class=&quot;a-color-base&quot;&gt;wheel carousel&lt;/span&gt;&lt;/div&gt;" style="rounded=0;whiteSpace=wrap;html=1;strokeColor=#3399FF;strokeWidth=3;fillColor=none;fontColor=#FFFFFF;" parent="1" vertex="1">
                    <mxGeometry x="-3401" y="-1297" width="784" height="154" as="geometry"/>
                </mxCell>
                <mxCell id="94" value="&lt;h2 class=&quot;as-title-block-left&quot;&gt;&lt;br&gt;&lt;/h2&gt;" style="rounded=0;whiteSpace=wrap;html=1;strokeColor=#3399FF;strokeWidth=3;fillColor=none;fontColor=#FFFFFF;" parent="1" vertex="1">
                    <mxGeometry x="-3401" y="-1117" width="784" height="206" as="geometry"/>
                </mxCell>
                <mxCell id="96" value="" style="rounded=0;whiteSpace=wrap;html=1;strokeColor=#33FFFF;strokeWidth=2;fontSize=607;fontColor=#FFFFFF;fillColor=none;" parent="1" vertex="1">
                    <mxGeometry x="-3392" y="-1041" width="168.5" height="117" as="geometry"/>
                </mxCell>
                <mxCell id="99" value="" style="whiteSpace=wrap;html=1;aspect=fixed;strokeColor=#33FFFF;strokeWidth=2;fontSize=607;fontColor=#FFFFFF;fillColor=none;" parent="1" vertex="1">
                    <mxGeometry x="-3169" y="-1029" width="42" height="42" as="geometry"/>
                </mxCell>
                <mxCell id="114" value="" style="edgeStyle=none;html=1;fontSize=607;fontColor=#FFFFFF;" parent="1" source="101" target="99" edge="1">
                    <mxGeometry relative="1" as="geometry"/>
                </mxCell>
                <mxCell id="101" value="" style="whiteSpace=wrap;html=1;aspect=fixed;strokeColor=#33FFFF;strokeWidth=2;fontSize=607;fontColor=#FFFFFF;fillColor=none;" parent="1" vertex="1">
                    <mxGeometry x="-3084" y="-1025.5" width="40" height="40" as="geometry"/>
                </mxCell>
                <mxCell id="103" value="" style="whiteSpace=wrap;html=1;aspect=fixed;strokeColor=#33FFFF;strokeWidth=2;fontSize=607;fontColor=#FFFFFF;fillColor=none;" parent="1" vertex="1">
                    <mxGeometry x="-3169" y="-972" width="40" height="40" as="geometry"/>
                </mxCell>
                <mxCell id="113" value="" style="edgeStyle=none;html=1;fontSize=607;fontColor=#FFFFFF;startArrow=none;" parent="1" source="97" target="103" edge="1">
                    <mxGeometry relative="1" as="geometry"/>
                </mxCell>
                <mxCell id="106" value="" style="whiteSpace=wrap;html=1;aspect=fixed;strokeColor=#33FFFF;strokeWidth=2;fontSize=607;fontColor=#FFFFFF;fillColor=none;direction=south;" parent="1" vertex="1">
                    <mxGeometry x="-3089" y="-975" width="41" height="41" as="geometry"/>
                </mxCell>
                <mxCell id="112" value="" style="edgeStyle=none;html=1;fontSize=607;fontColor=#FFFFFF;" parent="1" source="109" target="111" edge="1">
                    <mxGeometry relative="1" as="geometry"/>
                </mxCell>
                <mxCell id="109" value="" style="rounded=0;whiteSpace=wrap;html=1;strokeColor=#33FFFF;strokeWidth=2;fontSize=607;fontColor=#FFFFFF;fillColor=none;" parent="1" vertex="1">
                    <mxGeometry x="-2801" y="-1041" width="168.5" height="117" as="geometry"/>
                </mxCell>
                <mxCell id="111" value="" style="rounded=0;whiteSpace=wrap;html=1;strokeColor=#33FFFF;strokeWidth=2;fontSize=607;fontColor=#FFFFFF;fillColor=none;" parent="1" vertex="1">
                    <mxGeometry x="-2995.5" y="-1041" width="168.5" height="117" as="geometry"/>
                </mxCell>
                <mxCell id="115" value="" style="edgeStyle=none;html=1;fontSize=607;fontColor=#FFFFFF;endArrow=none;" parent="1" source="106" target="97" edge="1">
                    <mxGeometry relative="1" as="geometry">
                        <mxPoint x="-3089" y="-953.8633540372671" as="sourcePoint"/>
                        <mxPoint x="-3129" y="-952.6211180124224" as="targetPoint"/>
                    </mxGeometry>
                </mxCell>
                <mxCell id="97" value="" style="rounded=0;whiteSpace=wrap;html=1;strokeColor=#33FFFF;strokeWidth=2;fontSize=607;fontColor=#FFFFFF;fillColor=none;" parent="1" vertex="1">
                    <mxGeometry x="-3194.5" y="-1041" width="179" height="117" as="geometry"/>
                </mxCell>
                <mxCell id="116" value="new Arrivals" style="ellipse;shape=cloud;whiteSpace=wrap;html=1;strokeColor=#33FFFF;strokeWidth=1;fontSize=16;fontColor=#FFFFFF;fillColor=none;" parent="1" vertex="1">
                    <mxGeometry x="-3169" y="-1112" width="320" height="46" as="geometry"/>
                </mxCell>
                <mxCell id="117" value="" style="rounded=0;whiteSpace=wrap;html=1;strokeColor=#3399FF;strokeWidth=3;fillColor=none;" parent="1" vertex="1">
                    <mxGeometry x="-3397" y="-887" width="784" height="154" as="geometry"/>
                </mxCell>
                <mxCell id="120" value="" style="edgeStyle=none;html=1;fontSize=16;fontColor=#FFFFFF;" parent="1" source="118" target="119" edge="1">
                    <mxGeometry relative="1" as="geometry"/>
                </mxCell>
                <mxCell id="118" value="" style="whiteSpace=wrap;html=1;aspect=fixed;strokeColor=#FFCC99;strokeWidth=1;fontSize=16;fontColor=#FFFFFF;fillColor=none;" parent="1" vertex="1">
                    <mxGeometry x="-3364" y="-850" width="103" height="103" as="geometry"/>
                </mxCell>
                <mxCell id="122" value="" style="edgeStyle=none;html=1;fontSize=16;fontColor=#FFFFFF;" parent="1" source="119" target="121" edge="1">
                    <mxGeometry relative="1" as="geometry"/>
                </mxCell>
                <mxCell id="119" value="" style="whiteSpace=wrap;html=1;aspect=fixed;strokeColor=#FFCC99;strokeWidth=1;fontSize=16;fontColor=#FFFFFF;fillColor=none;" parent="1" vertex="1">
                    <mxGeometry x="-3178" y="-847" width="103" height="103" as="geometry"/>
                </mxCell>
                <mxCell id="124" value="" style="edgeStyle=none;html=1;fontSize=16;fontColor=#FFFFFF;" parent="1" source="121" target="123" edge="1">
                    <mxGeometry relative="1" as="geometry"/>
                </mxCell>
                <mxCell id="121" value="" style="whiteSpace=wrap;html=1;aspect=fixed;strokeColor=#FFCC99;strokeWidth=1;fontSize=16;fontColor=#FFFFFF;fillColor=none;" parent="1" vertex="1">
                    <mxGeometry x="-2995.5" y="-850" width="103" height="103" as="geometry"/>
                </mxCell>
                <mxCell id="123" value="" style="whiteSpace=wrap;html=1;aspect=fixed;strokeColor=#FFCC99;strokeWidth=1;fontSize=16;fontColor=#FFFFFF;fillColor=none;" parent="1" vertex="1">
                    <mxGeometry x="-2811" y="-847" width="103" height="103" as="geometry"/>
                </mxCell>
                <mxCell id="125" value="Large appliance&lt;br&gt;10 mouse wheel carousel" style="text;strokeColor=none;fillColor=none;html=1;fontSize=15;fontStyle=1;verticalAlign=middle;align=center;strokeWidth=1;fontColor=#FFFFFF;" parent="1" vertex="1">
                    <mxGeometry x="-3075" y="-878" width="100" height="17" as="geometry"/>
                </mxCell>
                <mxCell id="126" value="" style="rounded=0;whiteSpace=wrap;html=1;strokeColor=#3399FF;strokeWidth=3;fillColor=none;fontColor=#FF9933;" parent="1" vertex="1">
                    <mxGeometry x="-3397" y="-709" width="784" height="154" as="geometry"/>
                </mxCell>
                <mxCell id="127" value="&lt;h2 class=&quot;as-title-block-left&quot;&gt;&lt;span style=&quot;font-size: 19px;&quot; class=&quot;a-color-base&quot;&gt;Frequently purchased in Groceries&lt;/span&gt;&lt;/h2&gt;" style="text;strokeColor=none;fillColor=none;html=1;fontSize=24;fontStyle=1;verticalAlign=middle;align=center;strokeWidth=1;fontColor=#FFFFFF;" parent="1" vertex="1">
                    <mxGeometry x="-3067" y="-709" width="100" height="40" as="geometry"/>
                </mxCell>
                <mxCell id="128" value="mouse wheel carousel" style="text;html=1;strokeColor=none;fillColor=none;align=center;verticalAlign=middle;whiteSpace=wrap;rounded=0;strokeWidth=1;fontSize=19;fontColor=#FF9933;" parent="1" vertex="1">
                    <mxGeometry x="-3103" y="-653" width="208" height="30" as="geometry"/>
                </mxCell>
                <mxCell id="130" value="&lt;meta charset=&quot;utf-8&quot;&gt;&lt;div data-mix-claimed=&quot;true&quot; data-acp-tracking=&quot;{&amp;quot;pd_rd_w&amp;quot;:&amp;quot;vAYxo&amp;quot;,&amp;quot;content-id&amp;quot;:&amp;quot;amzn1.sym.8e6e84ee-12aa-45bc-a2da-7348c17c3e6e&amp;quot;,&amp;quot;pf_rd_p&amp;quot;:&amp;quot;8e6e84ee-12aa-45bc-a2da-7348c17c3e6e&amp;quot;,&amp;quot;pf_rd_r&amp;quot;:&amp;quot;PK5D1TDE805KMWAJQT5N&amp;quot;,&amp;quot;pd_rd_wg&amp;quot;:&amp;quot;bNxk9&amp;quot;,&amp;quot;pd_rd_r&amp;quot;:&amp;quot;c80b626b-6c15-47ca-a0d8-a68a5f949608&amp;quot;,&amp;quot;ref_&amp;quot;:&amp;quot;rvi&amp;quot;}&quot; data-card-metrics-id=&quot;p13n-rvi_desktop-rvi_0&quot; id=&quot;CardInstanceA3T_tH_oM4MuZzottoH7uw&quot; class=&quot;_cDEzb_identity_slKBR&quot;&gt;&lt;div align=&quot;center&quot; class=&quot;rhf-state-signin&quot;&gt;&lt;div class=&quot;rhf-sign-in-button&quot;&gt;&lt;div class=&quot;rhf-sign-in-title&quot;&gt;See personalized recommendations&lt;/div&gt;&lt;a href=&quot;https://www.amazon.eg/ap/signin?openid.mode=checkid_setup&amp;amp;openid.ns=http%3A%2F%2Fspecs.openid.net%2Fauth%2F2.0&amp;amp;openid.return_to=https%3A%2F%2Fwww.amazon.eg%2Fref%3Drhf_sign_in&amp;amp;openid.assoc_handle=egflex&amp;amp;openid.pape.max_auth_age=0&quot; class=&quot;action-button&quot;&gt;&lt;span width=&quot;50px&quot; class=&quot;action-inner&quot;&gt;Sign in&lt;/span&gt;&lt;/a&gt;&lt;div class=&quot;rhf-sign-in-tooltip-new-customer&quot;&gt;New customer?&amp;nbsp;&lt;a href=&quot;https://www.amazon.eg/ap/register?openid.mode=checkid_setup&amp;amp;openid.ns=http%3A%2F%2Fspecs.openid.net%2Fauth%2F2.0&amp;amp;openid.return_to=https%3A%2F%2Fwww.amazon.eg%2Fref%3Drhf_sign_in&amp;amp;openid.assoc_handle=egflex&quot; class=&quot;sign-in-tooltip-link&quot;&gt;Start here.&lt;/a&gt;&lt;/div&gt;&lt;/div&gt;&lt;/div&gt;&lt;/div&gt;" style="rounded=0;whiteSpace=wrap;html=1;strokeColor=#3399FF;strokeWidth=3;fillColor=none;fontColor=#FF9933;" parent="1" vertex="1">
                    <mxGeometry x="-3397" y="-534" width="784" height="68" as="geometry"/>
                </mxCell>
                <mxCell id="131" value="&lt;div data-mix-claimed=&quot;true&quot; data-acp-tracking=&quot;{&amp;quot;pd_rd_w&amp;quot;:&amp;quot;vAYxo&amp;quot;,&amp;quot;content-id&amp;quot;:&amp;quot;amzn1.sym.8e6e84ee-12aa-45bc-a2da-7348c17c3e6e&amp;quot;,&amp;quot;pf_rd_p&amp;quot;:&amp;quot;8e6e84ee-12aa-45bc-a2da-7348c17c3e6e&amp;quot;,&amp;quot;pf_rd_r&amp;quot;:&amp;quot;PK5D1TDE805KMWAJQT5N&amp;quot;,&amp;quot;pd_rd_wg&amp;quot;:&amp;quot;bNxk9&amp;quot;,&amp;quot;pd_rd_r&amp;quot;:&amp;quot;c80b626b-6c15-47ca-a0d8-a68a5f949608&amp;quot;,&amp;quot;ref_&amp;quot;:&amp;quot;rvi&amp;quot;}&quot; data-card-metrics-id=&quot;p13n-rvi_desktop-rvi_0&quot; id=&quot;CardInstanceA3T_tH_oM4MuZzottoH7uw&quot; class=&quot;_cDEzb_identity_slKBR&quot;&gt;&lt;div align=&quot;center&quot; class=&quot;rhf-state-signin&quot;&gt;&lt;div class=&quot;rhf-sign-in-button&quot;&gt;&lt;div class=&quot;rhf-sign-in-title&quot;&gt;Condit&lt;/div&gt;&lt;/div&gt;&lt;/div&gt;&lt;/div&gt;" style="rounded=0;whiteSpace=wrap;html=1;strokeColor=#3399FF;strokeWidth=3;fillColor=none;fontColor=#FF9933;" parent="1" vertex="1">
                    <mxGeometry x="-3399" y="-405" width="784" height="378" as="geometry"/>
                </mxCell>
                <mxCell id="132" value="&lt;div data-mix-claimed=&quot;true&quot; data-acp-tracking=&quot;{&amp;quot;pd_rd_w&amp;quot;:&amp;quot;vAYxo&amp;quot;,&amp;quot;content-id&amp;quot;:&amp;quot;amzn1.sym.8e6e84ee-12aa-45bc-a2da-7348c17c3e6e&amp;quot;,&amp;quot;pf_rd_p&amp;quot;:&amp;quot;8e6e84ee-12aa-45bc-a2da-7348c17c3e6e&amp;quot;,&amp;quot;pf_rd_r&amp;quot;:&amp;quot;PK5D1TDE805KMWAJQT5N&amp;quot;,&amp;quot;pd_rd_wg&amp;quot;:&amp;quot;bNxk9&amp;quot;,&amp;quot;pd_rd_r&amp;quot;:&amp;quot;c80b626b-6c15-47ca-a0d8-a68a5f949608&amp;quot;,&amp;quot;ref_&amp;quot;:&amp;quot;rvi&amp;quot;}&quot; data-card-metrics-id=&quot;p13n-rvi_desktop-rvi_0&quot; id=&quot;CardInstanceA3T_tH_oM4MuZzottoH7uw&quot; class=&quot;_cDEzb_identity_slKBR&quot;&gt;&lt;div align=&quot;center&quot; class=&quot;rhf-state-signin&quot;&gt;&lt;div class=&quot;rhf-sign-in-button&quot;&gt;&lt;div class=&quot;rhf-sign-in-title&quot;&gt;Back to top&lt;/div&gt;&lt;/div&gt;&lt;/div&gt;&lt;/div&gt;" style="rounded=0;whiteSpace=wrap;html=1;strokeWidth=2;strokeColor=#FFFF00;" parent="1" vertex="1">
                    <mxGeometry x="-3395" y="-425" width="780" height="24" as="geometry"/>
                </mxCell>
                <mxCell id="133" value="&lt;div data-mix-claimed=&quot;true&quot; data-acp-tracking=&quot;{&amp;quot;pd_rd_w&amp;quot;:&amp;quot;vAYxo&amp;quot;,&amp;quot;content-id&amp;quot;:&amp;quot;amzn1.sym.8e6e84ee-12aa-45bc-a2da-7348c17c3e6e&amp;quot;,&amp;quot;pf_rd_p&amp;quot;:&amp;quot;8e6e84ee-12aa-45bc-a2da-7348c17c3e6e&amp;quot;,&amp;quot;pf_rd_r&amp;quot;:&amp;quot;PK5D1TDE805KMWAJQT5N&amp;quot;,&amp;quot;pd_rd_wg&amp;quot;:&amp;quot;bNxk9&amp;quot;,&amp;quot;pd_rd_r&amp;quot;:&amp;quot;c80b626b-6c15-47ca-a0d8-a68a5f949608&amp;quot;,&amp;quot;ref_&amp;quot;:&amp;quot;rvi&amp;quot;}&quot; data-card-metrics-id=&quot;p13n-rvi_desktop-rvi_0&quot; id=&quot;CardInstanceA3T_tH_oM4MuZzottoH7uw&quot; class=&quot;_cDEzb_identity_slKBR&quot;&gt;&lt;div align=&quot;center&quot; class=&quot;rhf-state-signin&quot;&gt;&lt;div class=&quot;rhf-sign-in-button&quot;&gt;&lt;div class=&quot;rhf-sign-in-title&quot;&gt;&lt;br&gt;&lt;/div&gt;&lt;/div&gt;&lt;/div&gt;&lt;/div&gt;" style="rounded=0;whiteSpace=wrap;html=1;strokeWidth=2;strokeColor=#FFFF00;" parent="1" vertex="1">
                    <mxGeometry x="-3395" y="-377" width="780" height="164" as="geometry"/>
                </mxCell>
                <mxCell id="136" value="" style="edgeStyle=none;html=1;fontSize=19;fontColor=#FF9933;" parent="1" source="134" target="135" edge="1">
                    <mxGeometry relative="1" as="geometry"/>
                </mxCell>
                <mxCell id="134" value="" style="rounded=0;whiteSpace=wrap;html=1;strokeColor=#99CCFF;strokeWidth=2;fontSize=19;fontColor=#FF9933;fillColor=none;direction=south;" parent="1" vertex="1">
                    <mxGeometry x="-3298" y="-368" width="83" height="140" as="geometry"/>
                </mxCell>
                <mxCell id="138" value="" style="edgeStyle=none;html=1;fontSize=19;fontColor=#FF9933;" parent="1" source="135" target="137" edge="1">
                    <mxGeometry relative="1" as="geometry"/>
                </mxCell>
                <mxCell id="135" value="" style="rounded=0;whiteSpace=wrap;html=1;strokeColor=#99CCFF;strokeWidth=2;fontSize=19;fontColor=#FF9933;fillColor=none;direction=south;" parent="1" vertex="1">
                    <mxGeometry x="-3135" y="-368" width="83" height="140" as="geometry"/>
                </mxCell>
                <mxCell id="140" value="" style="edgeStyle=none;html=1;fontSize=19;fontColor=#FF9933;" parent="1" source="137" target="139" edge="1">
                    <mxGeometry relative="1" as="geometry"/>
                </mxCell>
                <mxCell id="137" value="" style="rounded=0;whiteSpace=wrap;html=1;strokeColor=#99CCFF;strokeWidth=2;fontSize=19;fontColor=#FF9933;fillColor=none;direction=south;" parent="1" vertex="1">
                    <mxGeometry x="-2972" y="-368" width="83" height="140" as="geometry"/>
                </mxCell>
                <mxCell id="139" value="" style="rounded=0;whiteSpace=wrap;html=1;strokeColor=#99CCFF;strokeWidth=2;fontSize=19;fontColor=#FF9933;fillColor=none;direction=south;" parent="1" vertex="1">
                    <mxGeometry x="-2809" y="-368" width="83" height="140" as="geometry"/>
                </mxCell>
                <mxCell id="143" value="&lt;div data-mix-claimed=&quot;true&quot; data-acp-tracking=&quot;{&amp;quot;pd_rd_w&amp;quot;:&amp;quot;vAYxo&amp;quot;,&amp;quot;content-id&amp;quot;:&amp;quot;amzn1.sym.8e6e84ee-12aa-45bc-a2da-7348c17c3e6e&amp;quot;,&amp;quot;pf_rd_p&amp;quot;:&amp;quot;8e6e84ee-12aa-45bc-a2da-7348c17c3e6e&amp;quot;,&amp;quot;pf_rd_r&amp;quot;:&amp;quot;PK5D1TDE805KMWAJQT5N&amp;quot;,&amp;quot;pd_rd_wg&amp;quot;:&amp;quot;bNxk9&amp;quot;,&amp;quot;pd_rd_r&amp;quot;:&amp;quot;c80b626b-6c15-47ca-a0d8-a68a5f949608&amp;quot;,&amp;quot;ref_&amp;quot;:&amp;quot;rvi&amp;quot;}&quot; data-card-metrics-id=&quot;p13n-rvi_desktop-rvi_0&quot; id=&quot;CardInstanceA3T_tH_oM4MuZzottoH7uw&quot; class=&quot;_cDEzb_identity_slKBR&quot;&gt;&lt;div align=&quot;center&quot; class=&quot;rhf-state-signin&quot;&gt;&lt;div class=&quot;rhf-sign-in-button&quot;&gt;&lt;div class=&quot;rhf-sign-in-title&quot;&gt;&lt;br&gt;&lt;/div&gt;&lt;/div&gt;&lt;/div&gt;&lt;/div&gt;" style="rounded=0;whiteSpace=wrap;html=1;strokeWidth=2;strokeColor=#FFFF00;" parent="1" vertex="1">
                    <mxGeometry x="-3395" y="-179" width="780" height="63" as="geometry"/>
                </mxCell>
                <mxCell id="144" value="Logo" style="ellipse;whiteSpace=wrap;html=1;strokeColor=#99CCFF;strokeWidth=2;fontSize=19;fontColor=#FF9933;fillColor=none;" parent="1" vertex="1">
                    <mxGeometry x="-3272" y="-167.25" width="106" height="37" as="geometry"/>
                </mxCell>
                <mxCell id="149" value="" style="edgeStyle=none;html=1;fontSize=19;fontColor=#FF9933;" parent="1" source="145" target="148" edge="1">
                    <mxGeometry relative="1" as="geometry"/>
                </mxCell>
                <mxCell id="145" value="&lt;font style=&quot;font-size: 14px;&quot;&gt;English&lt;/font&gt;" style="rounded=0;whiteSpace=wrap;html=1;strokeColor=#99CCFF;strokeWidth=2;fontSize=19;fontColor=#FF9933;fillColor=none;align=center;" parent="1" vertex="1">
                    <mxGeometry x="-3069" y="-162" width="120" height="29" as="geometry"/>
                </mxCell>
                <mxCell id="148" value="&lt;font style=&quot;font-size: 14px;&quot;&gt;Egypt&lt;/font&gt;" style="rounded=0;whiteSpace=wrap;html=1;strokeColor=#99CCFF;strokeWidth=2;fontSize=19;fontColor=#FF9933;fillColor=none;align=right;spacingLeft=2;spacingRight=10;spacingBottom=4;" parent="1" vertex="1">
                    <mxGeometry x="-2858" y="-162" width="120" height="29" as="geometry"/>
                </mxCell>
                <mxCell id="150" value="" style="shape=sumEllipse;perimeter=ellipsePerimeter;whiteSpace=wrap;html=1;backgroundOutline=1;strokeColor=#99CCFF;strokeWidth=2;fontSize=19;fontColor=#FF9933;fillColor=none;" parent="1" vertex="1">
                    <mxGeometry x="-3061" y="-158.5" width="20" height="22" as="geometry"/>
                </mxCell>
                <mxCell id="152" value="" style="shape=tape;whiteSpace=wrap;html=1;strokeColor=#FFB366;strokeWidth=2;fontSize=14;fontColor=#FF9933;fillColor=none;size=0.48905020118655945;" parent="1" vertex="1">
                    <mxGeometry x="-2851" y="-157.5" width="31" height="17.5" as="geometry"/>
                </mxCell>
                <mxCell id="154" value="Conditions of sale &amp;amp; use......etc" style="text;html=1;strokeColor=none;fillColor=none;align=center;verticalAlign=middle;whiteSpace=wrap;rounded=0;strokeWidth=2;fontSize=14;fontColor=#FF9933;" parent="1" vertex="1">
                    <mxGeometry x="-3153.25" y="-92" width="248.5" height="30" as="geometry"/>
                </mxCell>
            </root>
        </mxGraphModel>
    </diagram>
</mxfile>